<svg xmlns="http://www.w3.org/2000/svg" width="28" height="28" viewBox="0 0 28 28">
  <path fill="currentColor" d="M22.667 14.667c0.476 0.007 0.937 0.050 1.386 0.127l-0.053-0.007v-4.68c0-0.004 0-0.008 0-0.013 0-1.082-0.651-2.013-1.583-2.421l-0.017-0.007-7.333-3.2c-0.314-0.139-0.681-0.22-1.067-0.22s-0.752 0.081-1.084 0.227l0.017-0.007-7.333 3.2c-0.949 0.422-1.598 1.355-1.6 2.44v4.8c0.016 6.219 4.199 11.457 9.904 13.070l0.096 0.023c0.821-0.202 1.532-0.453 2.209-0.765l-0.076 0.031c-0.918-1.283-1.467-2.884-1.467-4.613 0-4.411 3.576-7.987 7.987-7.987 0.005 0 0.010 0 0.015 0h-0.001z" />
  <path fill="currentColor" d="M22.667 17.333c-2.946 0-5.333 2.388-5.333 5.333s2.388 5.333 5.333 5.333c2.946 0 5.333-2.388 5.333-5.333v0c0-2.946-2.388-5.333-5.333-5.333v0zM22.667 19.173c0.825 0 1.493 0.669 1.493 1.493s-0.669 1.493-1.493 1.493c-0.825 0-1.493-0.669-1.493-1.493v0c0.004-0.823 0.67-1.49 1.493-1.493h0zM22.667 26.333c-0.001 0-0.002 0-0.003 0-1.231 0-2.319-0.612-2.976-1.548l-0.008-0.012c0.067-0.96 2.013-1.44 2.987-1.44s2.92 0.48 2.987 1.44c-0.665 0.948-1.753 1.56-2.984 1.56-0.001 0-0.002 0-0.003 0h0z"/>
</svg>
