<svg xmlns="http://www.w3.org/2000/svg" width="28" height="28" viewBox="0 0 28 28">
  <path fill="currentColor" d="M14 17.5q1.422 0 2.461-1.039t1.039-2.461-1.039-2.461-2.461-1.039-2.461 1.039-1.039 2.461 1.039 2.461 2.461 1.039zM14 2.352q4.813 0 8.23 3.418t3.418 8.23v1.695q0 1.75-1.176 2.953t-2.871 1.203q-2.133 0-3.445-1.75-1.75 1.75-4.156 1.75t-4.129-1.723-1.723-4.129 1.723-4.129 4.129-1.723 4.129 1.723 1.723 4.129v1.695q0 0.711 0.52 1.258t1.23 0.547 1.23-0.547 0.52-1.258v-1.695q0-3.828-2.762-6.59t-6.59-2.762-6.59 2.762-2.762 6.59 2.762 6.59 6.59 2.762h5.852v2.297h-5.852q-4.813 0-8.23-3.418t-3.418-8.23 3.418-8.23 8.23-3.418z" />
</svg>
