<svg id="format_list_bulleted_black_24dp_1_" data-name="format_list_bulleted_black_24dp (1)" xmlns="http://www.w3.org/2000/svg" width="24" height="24" viewBox="0 0 24 24">
  <path id="Path_22908" data-name="Path 22908" d="M0,0H24V24H0Z" fill="none"/>
  <path id="Path_22909" data-name="Path 22909" d="M4,10.5A1.5,1.5,0,1,0,5.5,12,1.5,1.5,0,0,0,4,10.5Zm0-6A1.5,1.5,0,1,0,5.5,6,1.5,1.5,0,0,0,4,4.5Zm0,12A1.5,1.5,0,1,0,5.5,18,1.5,1.5,0,0,0,4,16.5ZM7,19H21V17H7Zm0-6H21V11H7ZM7,5V7H21V5Z" fill="#aaa"/>
</svg>
