<svg width="29" height="28" viewBox="0 0 29 28" fill="none" xmlns="http://www.w3.org/2000/svg">
<path d="M8.2 21.722L5.785 24.1737C5.4525 24.5113 5.07187 24.5868 4.64312 24.4002C4.21437 24.2137 4 23.8806 4 23.4009V6.79844C4 6.21216 4.20562 5.71026 4.61687 5.29276C5.02812 4.87526 5.5225 4.6665 6.1 4.6665H22.9C23.4775 4.6665 23.9719 4.87526 24.3831 5.29276C24.7944 5.71026 25 6.21216 25 6.79844V19.5901C25 20.1763 24.7944 20.6782 24.3831 21.0957C23.9719 21.5132 23.4775 21.722 22.9 21.722H8.2ZM9.25 17.4581H15.55C15.8475 17.4581 16.0969 17.356 16.2981 17.1517C16.4994 16.9473 16.6 16.6942 16.6 16.3922C16.6 16.0901 16.4994 15.837 16.2981 15.6327C16.0969 15.4283 15.8475 15.3262 15.55 15.3262H9.25C8.9525 15.3262 8.70312 15.4283 8.50187 15.6327C8.30062 15.837 8.2 16.0901 8.2 16.3922C8.2 16.6942 8.30062 16.9473 8.50187 17.1517C8.70312 17.356 8.9525 17.4581 9.25 17.4581ZM9.25 14.2602H19.75C20.0475 14.2602 20.2969 14.1581 20.4981 13.9538C20.6994 13.7494 20.8 13.4963 20.8 13.1943C20.8 12.8922 20.6994 12.6391 20.4981 12.4347C20.2969 12.2304 20.0475 12.1283 19.75 12.1283H9.25C8.9525 12.1283 8.70312 12.2304 8.50187 12.4347C8.30062 12.6391 8.2 12.8922 8.2 13.1943C8.2 13.4963 8.30062 13.7494 8.50187 13.9538C8.70312 14.1581 8.9525 14.2602 9.25 14.2602ZM9.25 11.0623H19.75C20.0475 11.0623 20.2969 10.9602 20.4981 10.7558C20.6994 10.5515 20.8 10.2984 20.8 9.99635C20.8 9.69432 20.6994 9.44115 20.4981 9.23684C20.2969 9.03253 20.0475 8.93038 19.75 8.93038H9.25C8.9525 8.93038 8.70312 9.03253 8.50187 9.23684C8.30062 9.44115 8.2 9.69432 8.2 9.99635C8.2 10.2984 8.30062 10.5515 8.50187 10.7558C8.70312 10.9602 8.9525 11.0623 9.25 11.0623Z" fill="currentColor"/>
</svg>
