<svg width="27" height="28" viewBox="0 0 27 28" fill="none" xmlns="http://www.w3.org/2000/svg">
<path d="M13.5001 20.6665C13.8779 20.6665 14.1945 20.5387 14.4501 20.2832C14.7056 20.0276 14.8334 19.7109 14.8334 19.3332V13.9998C14.8334 13.6221 14.7056 13.3054 14.4501 13.0498C14.1945 12.7943 13.8779 12.6665 13.5001 12.6665C13.1223 12.6665 12.8056 12.7943 12.5501 13.0498C12.2945 13.3054 12.1667 13.6221 12.1667 13.9998V19.3332C12.1667 19.7109 12.2945 20.0276 12.5501 20.2832C12.8056 20.5387 13.1223 20.6665 13.5001 20.6665ZM13.5001 9.99984C13.8779 9.99984 14.1945 9.87206 14.4501 9.6165C14.7056 9.36095 14.8334 9.04428 14.8334 8.6665C14.8334 8.28873 14.7056 7.97206 14.4501 7.7165C14.1945 7.46095 13.8779 7.33317 13.5001 7.33317C13.1223 7.33317 12.8056 7.46095 12.5501 7.7165C12.2945 7.97206 12.1667 8.28873 12.1667 8.6665C12.1667 9.04428 12.2945 9.36095 12.5501 9.6165C12.8056 9.87206 13.1223 9.99984 13.5001 9.99984ZM13.5001 27.3332C11.6556 27.3332 9.9223 26.9832 8.30008 26.2832C6.67786 25.5832 5.26675 24.6332 4.06675 23.4332C2.86675 22.2332 1.91675 20.8221 1.21675 19.1998C0.516748 17.5776 0.166748 15.8443 0.166748 13.9998C0.166748 12.1554 0.516748 10.4221 1.21675 8.79984C1.91675 7.17762 2.86675 5.7665 4.06675 4.5665C5.26675 3.3665 6.67786 2.4165 8.30008 1.7165C9.9223 1.0165 11.6556 0.666504 13.5001 0.666504C15.3445 0.666504 17.0779 1.0165 18.7001 1.7165C20.3223 2.4165 21.7334 3.3665 22.9334 4.5665C24.1334 5.7665 25.0834 7.17762 25.7834 8.79984C26.4834 10.4221 26.8334 12.1554 26.8334 13.9998C26.8334 15.8443 26.4834 17.5776 25.7834 19.1998C25.0834 20.8221 24.1334 22.2332 22.9334 23.4332C21.7334 24.6332 20.3223 25.5832 18.7001 26.2832C17.0779 26.9832 15.3445 27.3332 13.5001 27.3332ZM13.5001 24.6665C16.4779 24.6665 19.0001 23.6332 21.0667 21.5665C23.1334 19.4998 24.1667 16.9776 24.1667 13.9998C24.1667 11.0221 23.1334 8.49984 21.0667 6.43317C19.0001 4.3665 16.4779 3.33317 13.5001 3.33317C10.5223 3.33317 8.00008 4.3665 5.93341 6.43317C3.86675 8.49984 2.83341 11.0221 2.83341 13.9998C2.83341 16.9776 3.86675 19.4998 5.93341 21.5665C8.00008 23.6332 10.5223 24.6665 13.5001 24.6665Z" fill="#D1D1D1"/>
</svg>
