<svg xmlns="http://www.w3.org/2000/svg" width="28" height="28" viewBox="0 0 28 28">
  <path fill="currentColor" d="M25.2-0.1h-22.4c-1.54 0.008-2.786 1.258-2.786 2.8 0 0 0 0 0 0v0l-0.014 14c0.005 1.544 1.256 2.795 2.8 2.8h22.4c1.544-0.005 2.795-1.256 2.8-2.8v-14c-0.005-1.544-1.256-2.795-2.8-2.8h-0zM12.6 4.1h2.8v2.8h-2.8zM12.6 8.3h2.8v2.8h-2.8zM8.4 4.1h2.8v2.8h-2.8zM8.4 8.3h2.8v2.8h-2.8zM7 11.1h-2.8v-2.8h2.8zM7 6.9h-2.8v-2.8h2.8zM19.6 16.7h-11.2v-2.8h11.2zM19.6 11.1h-2.8v-2.8h2.8zM19.6 6.9h-2.8v-2.8h2.8zM23.8 11.1h-2.8v-2.8h2.8zM23.8 6.9h-2.8v-2.8h2.8zM14 27.9l5.6-5.6h-11.2z" />
</svg>
