<svg xmlns="http://www.w3.org/2000/svg" width="120" height="120" viewBox="0 0 120 120">
  <defs>
    <style>
      .cls-2{fill:#2b6afc}
    </style>
  </defs>
  <g transform="translate(-128 -128)">
    <g transform="translate(146 145.998)">
      <g transform="translate(0 .002)">
        <path d="M75 0H9a9 9 0 0 0-9 9v48a9 9 0 0 0 9 9h10.65l-1.632 14.67a3 3 0 0 0 4.989 2.559L42.153 66H75a9 9 0 0 0 9-9V9a9 9 0 0 0-9-9zm3 57a3 3 0 0 1-3 3H41a3 3 0 0 0-2.007.771L24.852 73.5l1.131-10.167A3 3 0 0 0 23 60H9a3 3 0 0 1-3-3V9a3 3 0 0 1 3-3h66a3 3 0 0 1 3 3v48z" class="cls-2" transform="translate(0 -.002)"/>
      </g>
    </g>
    <g transform="translate(176 183)">
      <g>
        <path d="M193.6 291.077a2.793 2.793 0 0 0-4.169-.672q-.086.071-.166.148a11.056 11.056 0 0 1-14.145 0 2.782 2.782 0 0 0-4.2.339 3.555 3.555 0 0 0 .306 4.657q.081.078.166.148a16.426 16.426 0 0 0 21.6 0 3.542 3.542 0 0 0 .608-4.62z" class="cls-2" transform="translate(-170.189 -289.75)"/>
      </g>
    </g>
  </g>
</svg>
