<svg xmlns="http://www.w3.org/2000/svg" width="28" height="28" viewBox="0 0 28 28">
  <path fill="currentColor" d="M17.609 9.352v-2.352q0-1.477-1.066-2.543t-2.543-1.066-2.543 1.066-1.066 2.543v2.352h7.219zM14 19.852q0.93 0 1.641-0.711t0.711-1.641-0.711-1.641-1.641-0.711-1.641 0.711-0.711 1.641 0.711 1.641 1.641 0.711zM21 9.352q0.93 0 1.641 0.684t0.711 1.613v11.703q0 0.93-0.711 1.613t-1.641 0.684h-14q-0.93 0-1.641-0.684t-0.711-1.613v-11.703q0-0.93 0.711-1.613t1.641-0.684h1.148v-2.352q0-2.406 1.723-4.129t4.129-1.723 4.129 1.723 1.723 4.129v2.352h1.148z"/>
</svg>
