<svg xmlns="http://www.w3.org/2000/svg" width="20" height="20" viewBox="0 0 20 20">
  <g id="Group_1919" data-name="Group 1919" transform="translate(-8455 -754)">
    <path id="wifi_off_FILL1_wght300_GRAD200_opsz20_1_" data-name="wifi_off_FILL1_wght300_GRAD200_opsz20 (1)" d="M7.124,14.386a1.286,1.286,0,0,1-.927-.36,1.227,1.227,0,0,1-.376-.927,1.283,1.283,0,0,1,1.3-1.3,1.283,1.283,0,0,1,1.3,1.3,1.227,1.227,0,0,1-.376.927A1.286,1.286,0,0,1,7.124,14.386Zm6.237-7.633a9.717,9.717,0,0,0-2.781-1.6,9.612,9.612,0,0,0-3.456-.605q-.307,0-.789.024a3.714,3.714,0,0,0-.713.084L3.891,2.922a7.843,7.843,0,0,1,1.5-.33,13.277,13.277,0,0,1,1.732-.115,12.093,12.093,0,0,1,4.091.7,11.233,11.233,0,0,1,3.617,2.13.826.826,0,0,1,.291.666.982.982,0,0,1-.352.744.962.962,0,0,1-.69.283,1.043,1.043,0,0,1-.72-.253Zm-2.023,3.632q-.383-.4-.46-.475l-.49-.49L8.779,7.811q.429.138,1.042.352a5.614,5.614,0,0,1,1.287.675.968.968,0,0,1,.344.674.868.868,0,0,1-.3.736q.015-.015.061.015A.67.67,0,0,1,11.339,10.386Zm.092,3.816L6.818,9.666A4,4,0,0,0,5.6,9.88a3.659,3.659,0,0,0-1,.522,1.308,1.308,0,0,1-.812.168,1.2,1.2,0,0,1-.75-.352.831.831,0,0,1-.284-.675.822.822,0,0,1,.345-.628,5.675,5.675,0,0,1,.942-.6A4.025,4.025,0,0,1,5.1,7.949L2.726,5.589a5.151,5.151,0,0,0-.912.483A10.1,10.1,0,0,0,.9,6.739a1.071,1.071,0,0,1-.736.245,1.128,1.128,0,0,1-.751-.337.861.861,0,0,1-.291-.682.869.869,0,0,1,.321-.652,9.6,9.6,0,0,1,.889-.728,6.378,6.378,0,0,1,.873-.544L.78,3.612a.619.619,0,0,1-.215-.468.726.726,0,0,1,.246-.513.658.658,0,0,1,.474-.214.765.765,0,0,1,.506.214L12.4,13.267a.658.658,0,0,1,.214.474.613.613,0,0,1-.214.46.676.676,0,0,1-.483.237A.606.606,0,0,1,11.431,14.2Z" transform="translate(8457.876 755.572)" fill="#fd6565"/>
    <rect id="Rectangle_1144" data-name="Rectangle 1144" width="20" height="20" transform="translate(8455 754)" fill="#fd6565" opacity="0"/>
  </g>
</svg>
