<svg xmlns="http://www.w3.org/2000/svg" width="28" height="28" viewBox="0 0 28 28">
    <path fill="currentColor" d="M 8.84375 4.761719 L 7.175781 3.089844 C 4.375 5.226562 2.53125 8.515625 2.367188 12.25 L 4.703125 12.25 C 4.875 9.160156 6.464844 6.453125 8.84375 4.761719 Z M 23.296875 12.25 L 25.632812 12.25 C 25.457031 8.515625 23.613281 5.226562 20.824219 3.089844 L 19.167969 4.761719 C 21.523438 6.453125 23.125 9.160156 23.296875 12.25 Z M 21 12.832031 C 21 9.25 19.085938 6.253906 15.75 5.460938 L 15.75 4.667969 C 15.75 3.699219 14.96875 2.917969 14 2.917969 C 13.03125 2.917969 12.25 3.699219 12.25 4.667969 L 12.25 5.460938 C 8.902344 6.253906 7 9.238281 7 12.832031 L 7 18.667969 L 4.667969 21 L 4.667969 22.167969 L 23.332031 22.167969 L 23.332031 21 L 21 18.667969 Z M 14 25.667969 C 14.164062 25.667969 14.316406 25.65625 14.464844 25.621094 C 15.226562 25.457031 15.84375 24.941406 16.148438 24.242188 C 16.261719 23.964844 16.320312 23.660156 16.320312 23.332031 L 11.65625 23.332031 C 11.667969 24.617188 12.703125 25.667969 14 25.667969 Z M 14 25.667969" />
</svg>
