<svg id="wifi_black_24dp" xmlns="http://www.w3.org/2000/svg" width="20" height="20" viewBox="0 0 20 20">
  <path id="Path_22851" data-name="Path 22851" d="M0,0H20V20H0ZM0,0H20V20H0Z" fill="none"/>
  <path id="Path_22852" data-name="Path 22852" d="M1.99,9.126a1.155,1.155,0,0,0,1.558.083A10.621,10.621,0,0,1,16.99,9.2a1.179,1.179,0,0,0,1.492-1.825,12.99,12.99,0,0,0-16.408,0,1.176,1.176,0,0,0-.083,1.75Zm6.467,6.467,1.225,1.225a.83.83,0,0,0,1.175,0l1.225-1.225a.832.832,0,0,0-.192-1.325,3.567,3.567,0,0,0-3.258,0,.844.844,0,0,0-.175,1.325ZM5.348,12.485a1.176,1.176,0,0,0,1.525.108,5.886,5.886,0,0,1,6.8,0,1.186,1.186,0,0,0,1.525-.108l.008-.008a1.161,1.161,0,0,0-.108-1.758,8.258,8.258,0,0,0-9.65,0,1.164,1.164,0,0,0-.1,1.767Z" transform="translate(-0.273 -0.743)" fill="#4dac5c"/>
</svg>
