<svg xmlns="http://www.w3.org/2000/svg" width="28" height="28" viewBox="0 0 28 28">
  <path fill="currentColor" d="M25.907 17.307c0.056-0.389 0.089-0.842 0.093-1.302l0-0.005c-0.004-0.465-0.038-0.917-0.1-1.361l0.006 0.055 2.813-2.2c0.153-0.123 0.249-0.31 0.249-0.52 0-0.123-0.033-0.238-0.091-0.337l0.002 0.003-2.667-4.613c-0.117-0.202-0.332-0.336-0.579-0.336-0.084 0-0.165 0.016-0.239 0.044l0.005-0.002-3.32 1.333c-0.65-0.509-1.393-0.947-2.189-1.283l-0.064-0.024-0.507-3.533c-0.046-0.318-0.317-0.56-0.644-0.56-0.003 0-0.006 0-0.009 0h-5.333c-0.003-0-0.006-0-0.009-0-0.327 0-0.598 0.242-0.644 0.557l-0 0.003-0.507 3.533c-0.86 0.366-1.602 0.804-2.277 1.324l0.024-0.018-3.32-1.333c-0.072-0.029-0.155-0.047-0.242-0.047-0.245 0-0.459 0.136-0.57 0.337l-0.002 0.003-2.667 4.613c-0.058 0.096-0.092 0.212-0.092 0.336 0 0.21 0.098 0.396 0.251 0.517l0.001 0.001 2.813 2.2c-0.055 0.389-0.089 0.842-0.093 1.301l-0 0.005c0.004 0.465 0.038 0.918 0.1 1.362l-0.006-0.055-2.813 2.2c-0.153 0.123-0.249 0.31-0.249 0.52 0 0.123 0.033 0.238 0.091 0.337l-0.002-0.003 2.667 4.613c0.117 0.202 0.332 0.336 0.579 0.336 0.084 0 0.165-0.016 0.239-0.044l-0.005 0.002 3.32-1.333c0.65 0.509 1.393 0.947 2.189 1.283l0.064 0.024 0.507 3.533c0.046 0.318 0.317 0.56 0.644 0.56 0.003 0 0.006-0 0.009-0h5.333c0.003 0 0.006 0 0.009 0 0.327 0 0.598-0.242 0.644-0.557l0-0.003 0.507-3.533c0.86-0.366 1.602-0.804 2.277-1.324l-0.024 0.018 3.32 1.333c0.072 0.029 0.155 0.047 0.242 0.047 0.245 0 0.459-0.136 0.57-0.337l0.002-0.003 2.667-4.613c0.056-0.096 0.089-0.211 0.089-0.333 0-0.21-0.097-0.397-0.248-0.519l-0.001-0.001zM16 20.667c-2.577 0-4.667-2.089-4.667-4.667s2.089-4.667 4.667-4.667c2.577 0 4.667 2.089 4.667 4.667v0c0 2.577-2.089 4.667-4.667 4.667v0z"/>
</svg>
