<svg width="31" height="22" viewBox="0 0 31 22" fill="none" xmlns="http://www.w3.org/2000/svg">
<path d="M6.34668 20.7769C5.27865 20.7769 4.47347 20.5085 3.93115 19.9717C3.38883 19.4404 3.11768 18.6436 3.11768 17.5811V4.46582C3.11768 3.40332 3.38883 2.60645 3.93115 2.0752C4.47347 1.53841 5.27865 1.27002 6.34668 1.27002H25.0317C26.1053 1.27002 26.9132 1.53841 27.4556 2.0752C27.9979 2.61198 28.269 3.40885 28.269 4.46582V17.5811C28.269 18.638 27.9979 19.4349 27.4556 19.9717C26.9132 20.5085 26.1053 20.7769 25.0317 20.7769H6.34668ZM6.37988 19.3076H25.0068C25.5768 19.3076 26.0168 19.1554 26.3267 18.8511C26.6366 18.5467 26.7915 18.0985 26.7915 17.5063V4.54053C26.7915 3.9484 26.6366 3.50016 26.3267 3.1958C26.0168 2.89144 25.5768 2.73926 25.0068 2.73926H6.37988C5.79883 2.73926 5.35335 2.89144 5.04346 3.1958C4.7391 3.50016 4.58691 3.9484 4.58691 4.54053V17.5063C4.58691 18.0985 4.7391 18.5467 5.04346 18.8511C5.35335 19.1554 5.79883 19.3076 6.37988 19.3076ZM11.1528 19.5981V2.42383H12.5889V19.5981H11.1528ZM9.10254 6.72363H6.66211C6.5127 6.72363 6.38542 6.67106 6.28027 6.56592C6.17513 6.45524 6.12256 6.33073 6.12256 6.19238C6.12256 6.0485 6.17513 5.92399 6.28027 5.81885C6.38542 5.7137 6.5127 5.66113 6.66211 5.66113H9.10254C9.24642 5.66113 9.37093 5.7137 9.47607 5.81885C9.58675 5.92399 9.64209 6.0485 9.64209 6.19238C9.64209 6.33073 9.58675 6.45524 9.47607 6.56592C9.37093 6.67106 9.24642 6.72363 9.10254 6.72363ZM9.10254 9.5293H6.66211C6.5127 9.5293 6.38542 9.47673 6.28027 9.37158C6.17513 9.26644 6.12256 9.14193 6.12256 8.99805C6.12256 8.85417 6.17513 8.73242 6.28027 8.63281C6.38542 8.52767 6.5127 8.4751 6.66211 8.4751H9.10254C9.24642 8.4751 9.37093 8.52767 9.47607 8.63281C9.58675 8.73242 9.64209 8.85417 9.64209 8.99805C9.64209 9.14193 9.58675 9.26644 9.47607 9.37158C9.37093 9.47673 9.24642 9.5293 9.10254 9.5293ZM9.10254 12.335H6.66211C6.5127 12.335 6.38542 12.2852 6.28027 12.1855C6.17513 12.0804 6.12256 11.9559 6.12256 11.812C6.12256 11.6681 6.17513 11.5464 6.28027 11.4468C6.38542 11.3416 6.5127 11.2891 6.66211 11.2891H9.10254C9.24642 11.2891 9.37093 11.3416 9.47607 11.4468C9.58675 11.5464 9.64209 11.6681 9.64209 11.812C9.64209 11.9559 9.58675 12.0804 9.47607 12.1855C9.37093 12.2852 9.24642 12.335 9.10254 12.335Z" fill="#007AFF"/>
</svg>
