<svg id="cloud_off_black_24dp_1_" data-name="cloud_off_black_24dp (1)" xmlns="http://www.w3.org/2000/svg" width="20" height="20" viewBox="0 0 20 20">
  <path id="Path_22849" data-name="Path 22849" d="M0,0H20V20H0Z" fill="none"/>
  <path id="Path_22850" data-name="Path 22850" d="M20,13.167a4.147,4.147,0,0,0-3.875-4.133A6.242,6.242,0,0,0,10,4a6.161,6.161,0,0,0-3.042.808L8.2,6.05A4.5,4.5,0,0,1,10,5.667a4.581,4.581,0,0,1,4.583,4.583v.417h1.25a2.5,2.5,0,0,1,1.492,4.5L18.5,16.342A4.139,4.139,0,0,0,20,13.167ZM3.092,4.467a.83.83,0,0,0,0,1.175L4.809,7.358h-.35A4.991,4.991,0,0,0,.05,13.017a5.119,5.119,0,0,0,5.133,4.317h9.592l1.075,1.075a.831.831,0,0,0,1.175-1.175L4.267,4.467A.83.83,0,0,0,3.092,4.467ZM5,15.667A3.333,3.333,0,0,1,5,9H6.442l6.667,6.667Z" transform="translate(0 -0.667)" fill="#fd6565"/>
</svg>
