<svg xmlns="http://www.w3.org/2000/svg" width="200" height="200" viewBox="0 0 200 200">
<path style=" stroke:none;fill-rule:nonzero;fill:rgb(16.862745%,41.568627%,98.823529%);fill-opacity:1;" d="M 155 29.996094 L 45 29.996094 C 36.714844 29.996094 30 36.710938 30 44.996094 L 30 124.996094 C 30 133.28125 36.714844 139.996094 45 139.996094 L 62.75 139.996094 L 60.03125 164.445312 C 59.800781 166.507812 60.871094 168.496094 62.71875 169.445312 C 64.5625 170.390625 66.804688 170.101562 68.34375 168.710938 L 100.253906 139.996094 L 155 139.996094 C 163.285156 139.996094 170 133.28125 170 124.996094 L 170 44.996094 C 170 36.710938 163.285156 29.996094 155 29.996094 Z M 160 124.996094 C 160 127.757812 157.761719 129.996094 155 129.996094 L 98.332031 129.996094 C 97.097656 129.996094 95.90625 130.453125 94.988281 131.28125 L 71.421875 152.496094 L 73.304688 135.550781 C 73.464844 134.136719 73.011719 132.722656 72.0625 131.664062 C 71.113281 130.601562 69.757812 129.996094 68.332031 129.996094 L 45 129.996094 C 42.238281 129.996094 40 127.757812 40 124.996094 L 40 44.996094 C 40 42.234375 42.238281 39.996094 45 39.996094 L 155 39.996094 C 157.761719 39.996094 160 42.234375 160 44.996094 Z M 160 124.996094 "/>
<path style=" stroke:none;fill-rule:nonzero;fill:rgb(16.862745%,41.568627%,98.823529%);fill-opacity:1;" d="M 119.019531 93.878906 C 118.308594 92.730469 117.132812 91.945312 115.800781 91.730469 C 114.464844 91.515625 113.105469 91.890625 112.070312 92.757812 C 111.972656 92.835938 111.882812 92.917969 111.792969 93.003906 C 104.964844 98.691406 95.046875 98.691406 88.21875 93.003906 C 87.257812 92.058594 85.933594 91.574219 84.589844 91.683594 C 83.246094 91.792969 82.015625 92.480469 81.21875 93.570312 C 79.429688 95.921875 79.644531 99.234375 81.726562 101.332031 C 81.816406 101.417969 81.910156 101.5 82.003906 101.578125 C 92.316406 110.578125 107.691406 110.578125 118.003906 101.578125 C 120.222656 99.625 120.652344 96.335938 119.019531 93.878906 Z M 119.019531 93.878906 "/>
</svg>
